<?xml version="1.0" standalone="no"?><!-- Generator: Gravit.io --><svg xmlns="http://www.w3.org/2000/svg" xmlns:xlink="http://www.w3.org/1999/xlink" style="isolation:isolate" viewBox="0 0 156 122" width="156" height="122"><defs><clipPath id="_clipPath_02ImWu3gsCKmrcfksjCzGDZjmxW79Qwl"><rect width="156" height="122"/></clipPath></defs><g clip-path="url(#_clipPath_02ImWu3gsCKmrcfksjCzGDZjmxW79Qwl)"><clipPath id="_clipPath_gTNPtJNIUNtSiIT6xA1sRNLTv0aTUAlO"><rect x="0" y="0" width="156" height="122" transform="matrix(1,0,0,1,0,0)" fill="rgb(255,255,255)"/></clipPath><g clip-path="url(#_clipPath_gTNPtJNIUNtSiIT6xA1sRNLTv0aTUAlO)"><g><g><g><g><g><g><g><g><g><g><path d=" M 85.512 80.346 L 85.512 80.346 C 85.139 81.545 85.804 82.828 87.015 83.231 L 92.331 84.853 C 93.53 85.225 94.813 84.56 95.217 83.348 L 95.217 83.348 C 95.589 82.15 94.924 80.866 93.712 80.464 L 88.383 78.812 C 87.155 78.452 85.872 79.117 85.512 80.346 Z " fill="rgb(252,250,247)"/><path d=" M 80.343 87.454 L 80.343 87.454 C 79.971 88.651 80.636 89.936 81.848 90.338 L 87.177 91.99 C 88.375 92.363 89.659 91.697 90.061 90.485 L 90.061 90.485 C 90.435 89.287 89.769 88.003 88.558 87.601 L 83.229 85.949 C 82 85.59 80.716 86.255 80.343 87.454 Z " fill="rgb(252,250,247)"/><path d=" M 85.899 46.363 L 85.899 46.363 C 85.552 45.155 86.252 43.886 87.46 43.54 L 92.798 42.006 C 94.006 41.66 95.275 42.36 95.621 43.567 L 95.621 43.567 C 95.967 44.775 95.268 46.044 94.06 46.39 L 88.722 47.924 C 87.514 48.27 86.245 47.571 85.899 46.363 Z " fill="rgb(252,250,247)"/><path d=" M 80.898 39.135 L 80.898 39.135 C 80.553 37.928 81.252 36.659 82.459 36.312 L 87.798 34.779 C 89.006 34.433 90.275 35.132 90.621 36.34 L 90.621 36.34 C 90.967 37.548 90.268 38.817 89.06 39.163 L 83.722 40.696 C 82.513 41.043 81.245 40.343 80.898 39.135 Z " fill="rgb(252,250,247)"/></g><g><g><path d=" M 76.821 66.93 L 71.131 97.426 C 70.838 99.055 71.913 100.625 73.542 100.918 L 73.542 100.918 C 74.632 101.124 75.74 100.713 76.434 99.84 L 99.368 71.107 L 76.821 66.93 Z " fill="rgb(252,250,247)"/><path d=" M 99.382 71.137 L 92.805 79.376 L 76.446 99.87 C 75.753 100.743 74.645 101.153 73.554 100.948 C 72.624 100.781 71.906 100.199 71.507 99.443 L 94.143 71.09 L 76.671 67.817 L 76.821 66.93 L 99.382 71.137 Z " fill="rgb(2,20,86)"/></g><g><path d=" M 76.909 59.564 L 71.919 28.919 C 71.639 27.289 72.751 25.734 74.393 25.485 L 74.393 25.485 C 75.49 25.294 76.582 25.748 77.253 26.636 L 99.541 55.876 L 76.909 59.564 Z " fill="rgb(252,250,247)"/><path d=" M 72.305 26.928 C 72.727 26.173 73.49 25.627 74.393 25.485 C 75.49 25.294 76.582 25.748 77.253 26.636 L 99.541 55.876 L 76.879 59.577 L 76.736 58.673 L 94.302 55.829 L 72.305 26.928 Z " fill="rgb(2,20,86)"/></g></g><path d=" M 122.776 60.076 L 122.776 60.076 C 123.809 60.806 124.473 61.84 124.81 62.945 C 124.898 63.228 124.955 63.525 125 63.792 C 124.941 64.068 124.895 64.373 124.793 64.633 C 124.441 65.714 123.74 66.734 122.689 67.441 L 122.689 67.441 C 117.504 71.053 111.323 72.953 105.029 72.864 L 43.193 69.249 L 43.193 69.249 C 37.434 66.855 37.522 58.666 43.325 56.395 L 43.325 56.395 L 105.223 54.229 C 111.547 54.304 117.661 56.365 122.776 60.076 Z " fill="rgb(219,219,219)"/><path d=" M 122.776 60.076 L 122.776 60.076 C 123.809 60.806 124.473 61.84 124.81 62.945 C 124.898 63.228 124.955 63.525 125 63.792 C 124.941 64.068 124.895 64.373 124.793 64.633 C 124.441 65.714 123.74 66.734 122.689 67.441 L 122.689 67.441 C 117.504 71.053 111.323 72.953 105.029 72.864 L 43.193 69.249 L 43.193 69.249 C 37.434 66.855 37.522 58.666 43.325 56.395 L 43.325 56.395 L 105.223 54.229 C 111.547 54.304 117.661 56.365 122.776 60.076 Z " fill="rgb(252,250,247)"/><path d=" M 33.238 62.709 L 33.234 62.782 C 33.231 63.927 34.135 64.857 35.28 64.859 L 49.762 65.035 C 50.907 65.038 51.836 64.134 51.839 62.989 L 51.843 62.915 C 51.846 61.77 50.941 60.84 49.797 60.839 L 35.314 60.662 C 34.169 60.66 33.254 61.594 33.238 62.709 Z " fill="rgb(2,20,86)"/><path d=" M 112.815 70.053 L 109.955 68.078 C 111.801 65.418 111.844 61.896 110.066 59.201 L 112.987 57.288 C 115.537 61.184 115.503 66.203 112.815 70.053 Z " fill="rgb(107,113,114)"/><g><g><path d=" M 39.288 64.047 L 33.124 82.024 C 32.705 83.279 33.426 84.61 34.741 85.003 L 34.741 85.003 C 35.694 85.304 36.751 85.023 37.406 84.309 L 52.666 68.098 L 39.288 64.047 Z " fill="rgb(252,250,247)"/><path d=" M 39.332 61.597 L 33.579 43.508 C 33.177 42.254 33.937 40.959 35.264 40.559 L 35.264 40.559 C 36.219 40.289 37.274 40.58 37.911 41.304 L 52.79 57.857 L 39.332 61.597 Z " fill="rgb(252,250,247)"/></g><path d=" M 40.165 69.621 L 34.845 84.994 C 34.801 84.977 34.771 84.99 34.758 84.96 C 33.443 84.566 32.722 83.235 33.142 81.981 L 39.305 64.004 L 41.849 64.757 L 40.165 69.621 Z " fill="rgb(2,20,86)"/><path d=" M 39.332 61.597 L 36.456 52.553 L 33.579 43.508 C 33.177 42.254 33.937 40.959 35.264 40.559 C 35.294 40.547 35.324 40.533 35.367 40.551 L 41.893 60.913 L 39.332 61.597 Z " fill="rgb(2,20,86)"/></g></g></g></g><g style="opacity:0.1;"><g opacity="0.1"><path d=" M 125 63.792 C 124.942 63.496 124.898 63.228 124.81 62.945 C 124.473 61.84 123.822 60.837 122.776 60.076 L 122.776 60.076 C 117.692 56.352 111.547 54.304 105.223 54.229 L 98.5 54.469 L 92.659 46.785 L 94.06 46.39 C 95.268 46.044 95.967 44.775 95.621 43.567 C 95.275 42.36 94.006 41.66 92.798 42.006 L 89.652 42.909 L 87.225 39.71 L 89.073 39.193 C 90.281 38.847 90.98 37.578 90.634 36.37 C 90.288 35.162 89.019 34.462 87.811 34.809 L 84.248 35.821 L 77.267 26.667 C 76.937 26.237 76.501 25.891 75.983 25.687 C 75.466 25.483 74.94 25.426 74.377 25.527 C 74.14 25.559 73.96 25.637 73.736 25.699 C 73.706 25.712 73.646 25.738 73.616 25.751 C 73.466 25.816 73.298 25.925 73.161 26.021 C 73.131 26.033 73.101 26.046 73.084 26.089 C 72.916 26.198 72.792 26.324 72.638 26.461 C 72.638 26.461 72.638 26.461 72.608 26.475 C 72 27.132 71.717 28.042 71.841 28.988 L 76.138 55.323 L 51.219 56.216 L 37.864 41.361 C 37.241 40.666 36.258 40.379 35.32 40.607 L 35.32 40.607 C 35.291 40.62 35.26 40.633 35.217 40.616 C 34.233 40.901 33.544 41.701 33.436 42.606 C 33.39 42.911 33.418 43.221 33.519 43.535 L 38.979 60.785 L 35.25 60.761 C 34.136 60.746 33.224 61.607 33.177 62.735 L 48.326 62.924 L 124.965 63.878 C 124.982 63.835 124.982 63.835 125 63.792 Z " fill="rgb(7,7,7)"/></g></g></g></g><path d=" M -89.271 -69.242 C -89.493 -69.753 -89.663 -70.143 -89.663 -70.143 C -89.663 -70.143 -89.493 -69.753 -89.271 -69.242 C -89.049 -68.73 -88.879 -68.339 -88.879 -68.339 C -88.879 -68.339 -89.062 -68.76 -89.271 -69.242 Z " fill="rgb(252,250,247)"/></g></g></g></g></g></g></svg>