<?xml version="1.0" standalone="no"?><!-- Generator: Gravit.io --><svg xmlns="http://www.w3.org/2000/svg" xmlns:xlink="http://www.w3.org/1999/xlink" style="isolation:isolate" viewBox="0 0 595.276 459.213" width="595.276" height="459.213"><defs><clipPath id="_clipPath_1NNUCeXLvOFoUIp1xzeSt0m7qrMqQNEe"><rect width="595.276" height="459.213"/></clipPath></defs><g clip-path="url(#_clipPath_1NNUCeXLvOFoUIp1xzeSt0m7qrMqQNEe)"><clipPath id="_clipPath_PHbGnY5AZzVtFMpruWH3bMvaIcPLmZDW"><rect x="10" y="23" width="595.276" height="459.213" transform="matrix(1,0,0,1,0,0)" fill="rgb(255,255,255)"/></clipPath><g clip-path="url(#_clipPath_PHbGnY5AZzVtFMpruWH3bMvaIcPLmZDW)"><g><g><g><g><g><g><g><g><path d=" M 171.171 364.213 C 98.358 291.4 98.358 173.17 171.171 100.357 C 243.985 27.544 362.215 27.544 435.028 100.357 C 507.841 173.17 507.841 291.4 435.028 364.213 C 362.215 437.027 243.985 437.027 171.171 364.213 Z " fill="rgb(82,103,175)"/></g></g><g><g style="opacity:0.5;"/><g><g><g><path d=" M 276.526 139.08 L 276.526 139.08 C 279.832 135.245 279.434 129.426 275.599 125.989 L 258.54 111.443 C 254.705 108.137 248.886 108.532 245.449 112.367 L 245.449 112.367 C 242.143 116.202 242.538 122.021 246.373 125.461 L 263.432 140.137 C 267.401 143.443 273.22 143.048 276.526 139.08 Z " fill="rgb(252,250,247)"/><path d=" M 307.073 121.097 L 307.073 121.097 C 310.379 117.259 309.981 111.443 306.146 108.003 L 289.087 93.324 C 285.253 90.017 279.434 90.416 275.997 94.25 L 275.997 94.25 C 272.691 98.085 273.086 103.904 276.921 107.341 L 293.98 122.021 C 297.948 125.327 303.767 124.932 307.073 121.097 Z " fill="rgb(252,250,247)"/><path d=" M 220.453 264.182 L 220.453 264.182 C 219.794 269.208 215.166 272.778 210.14 272.116 L 187.921 269.208 C 182.898 268.545 179.328 263.917 179.987 258.891 L 179.987 258.891 C 180.65 253.865 185.278 250.295 190.304 250.957 L 212.519 253.865 C 217.545 254.528 221.116 259.156 220.453 264.182 Z " fill="rgb(252,250,247)"/><path d=" M 227.33 298.959 L 227.33 298.959 C 226.67 303.985 222.042 307.555 217.016 306.896 L 194.798 303.985 C 189.775 303.326 186.204 298.695 186.864 293.672 L 186.864 293.672 C 187.526 288.646 192.154 285.075 197.18 285.738 L 219.396 288.646 C 224.422 289.308 227.992 293.936 227.33 298.959 Z " fill="rgb(252,250,247)"/></g><g><g><path d=" M 287.103 202.688 L 357.193 99.012 C 360.894 93.457 359.439 85.918 353.887 82.217 L 353.887 82.217 C 350.183 79.704 345.421 79.44 341.456 81.555 L 210.404 150.982 L 287.103 202.688 Z " fill="rgb(252,250,247)"/><path d=" M 210.404 150.848 L 341.456 81.424 C 345.421 79.306 350.183 79.571 353.887 82.084 C 357.059 84.202 358.779 87.508 359.044 90.944 L 229.712 159.445 L 289.087 199.646 L 287.103 202.688 L 210.404 150.848 Z " fill="rgb(2,20,86)"/></g><g><path d=" M 274.936 229.799 L 244.124 351.197 C 242.538 357.675 235.926 361.644 229.448 359.924 L 229.448 359.924 C 225.081 358.866 221.775 355.427 220.717 351.063 L 185.278 207.052 L 274.936 229.799 Z " fill="rgb(252,250,247)"/><path d=" M 239.496 357.94 C 236.719 360.058 233.018 360.851 229.448 359.924 C 225.081 358.866 221.775 355.427 220.717 351.063 L 185.278 207.052 L 275.07 229.799 L 274.143 233.37 L 204.585 215.648 L 239.496 357.94 Z " fill="rgb(2,20,86)"/></g></g><path d=" M 106.066 154.155 L 106.066 154.155 C 103.419 149.791 102.626 144.899 103.155 140.271 C 103.288 139.08 103.553 137.892 103.817 136.831 C 104.48 135.907 105.139 134.85 105.932 134.054 C 108.974 130.617 113.207 127.973 118.233 127.047 L 118.233 127.047 C 143.226 122.021 169.145 124.932 192.288 135.379 L 415.247 248.18 L 415.247 248.18 C 432.701 266.296 419.212 296.449 394.088 295.522 L 394.088 295.522 L 161.606 204.01 C 138.333 193.563 119.026 176.109 106.066 154.155 Z " fill="rgb(219,219,219)"/><path d=" M 106.066 154.155 L 106.066 154.155 C 103.419 149.791 102.626 144.899 103.155 140.271 C 103.288 139.08 103.553 137.892 103.817 136.831 C 104.48 135.907 105.139 134.85 105.932 134.054 C 108.974 130.617 113.207 127.973 118.233 127.047 L 118.233 127.047 C 143.226 122.021 169.145 124.932 192.288 135.379 L 415.247 248.18 L 415.247 248.18 C 432.701 266.296 419.212 296.449 394.088 295.522 L 394.088 295.522 L 161.606 204.01 C 138.333 193.563 119.026 176.109 106.066 154.155 Z " fill="rgb(252,250,247)"/><path d=" M 441.562 288.382 L 441.695 288.117 C 443.546 283.884 441.695 278.992 437.462 277.142 L 384.17 253.206 C 379.937 251.352 375.045 253.206 373.195 257.436 L 373.061 257.7 C 371.21 261.933 373.061 266.825 377.294 268.676 L 430.586 292.614 C 434.819 294.465 439.711 292.481 441.562 288.382 Z " fill="rgb(2,20,86)"/><path d=" M 158.963 133.261 L 166.368 145.163 C 155.259 152.04 149.44 165 151.688 177.826 L 137.801 180.208 C 134.629 161.694 142.827 143.179 158.963 133.261 Z " fill="rgb(107,113,114)"/><g><g><path d=" M 421.33 273.702 L 473.036 217.104 C 476.606 213.135 476.078 207.052 471.845 203.481 L 471.845 203.481 C 468.803 200.838 464.44 200.175 460.869 201.764 L 378.351 237.204 L 421.33 273.702 Z " fill="rgb(252,250,247)"/><path d=" M 417.231 282.696 L 409.428 358.866 C 408.899 364.157 404.007 367.727 398.452 367.065 L 398.452 367.065 C 394.483 366.536 391.047 363.759 389.856 360.058 L 361.423 274.893 L 417.231 282.696 Z " fill="rgb(252,250,247)"/></g><path d=" M 471.45 203.351 C 471.58 203.481 471.714 203.481 471.714 203.615 C 475.944 207.185 476.473 213.269 472.902 217.234 L 421.196 273.835 L 412.998 266.959 L 471.45 203.351 Z " fill="rgb(2,20,86)"/><path d=" M 417.231 282.696 L 409.428 358.866 C 408.899 364.157 404.007 367.727 398.452 367.065 C 398.318 367.065 398.188 367.065 398.054 366.934 L 406.65 281.107 L 417.231 282.696 Z " fill="rgb(2,20,86)"/></g></g></g></g><g style="opacity:0.1;"><path d=" M 103.817 136.831 C 103.553 138.022 103.288 139.08 103.155 140.271 C 102.626 144.899 103.419 149.66 106.066 154.155 L 106.066 154.155 C 118.892 176.109 138.333 193.563 161.606 204.01 L 186.864 213.928 L 196.123 251.75 L 190.304 250.957 C 185.278 250.295 180.65 253.865 179.987 258.891 C 179.328 263.917 182.898 268.545 187.921 269.208 L 201.015 270.924 L 204.85 286.662 L 197.18 285.604 C 192.154 284.942 187.526 288.512 186.864 293.538 C 186.204 298.564 189.775 303.192 194.798 303.854 L 209.611 305.839 L 220.717 350.932 C 221.246 353.047 222.307 355.032 223.893 356.618 C 225.479 358.204 227.33 359.261 229.578 359.793 C 230.505 360.058 231.298 360.058 232.225 360.188 C 232.356 360.188 232.62 360.188 232.754 360.188 C 233.413 360.188 234.206 360.058 234.869 359.924 C 234.999 359.924 235.133 359.924 235.267 359.793 C 236.06 359.659 236.719 359.395 237.512 359.131 C 237.512 359.131 237.512 359.131 237.646 359.131 C 240.952 357.675 243.465 354.767 244.522 351.063 L 270.971 246.724 L 364.598 283.489 L 390.12 359.924 C 391.311 363.494 394.483 366.138 398.318 366.8 L 398.318 366.8 C 398.452 366.8 398.583 366.8 398.716 366.934 C 402.816 367.463 406.65 365.609 408.501 362.437 C 409.163 361.379 409.558 360.188 409.692 358.866 L 417.231 286.267 L 430.984 292.35 C 435.083 294.201 439.842 292.481 441.826 288.382 L 408.173 273.255 L 384.039 262.407 L 104.081 136.567 C 103.948 136.701 103.948 136.701 103.817 136.831 Z " fill="rgb(7,7,7)"/></g></g></g><path d=" M 275.213 512.587 C 275.213 513.31 275.213 513.863 275.213 513.863 C 275.213 513.863 275.213 513.31 275.213 512.587 C 275.213 511.865 275.213 511.312 275.213 511.312 C 275.213 511.312 275.213 511.907 275.213 512.587 Z " fill="rgb(252,250,247)"/></g></g></g></g></g><path d=" M 153.715 380.48 L 153.715 380.48 L 153.715 380.48 Q 159.325 380.48 163.405 381.628 L 163.405 381.628 L 163.405 381.628 Q 167.485 382.775 170.46 384.39 L 170.46 384.39 L 167.57 393.825 L 167.57 393.825 Q 164.255 392.125 160.898 391.148 L 160.898 391.148 L 160.898 391.148 Q 157.54 390.17 154.48 390.17 L 154.48 390.17 L 154.48 390.17 Q 150.57 390.17 148.53 391.615 L 148.53 391.615 L 148.53 391.615 Q 146.49 393.06 146.49 395.44 L 146.49 395.44 L 146.49 395.44 Q 146.49 398.16 148.445 399.393 L 148.445 399.393 L 148.445 399.393 Q 150.4 400.625 154.48 401.985 L 154.48 401.985 L 159.495 403.6 L 159.495 403.6 Q 162.47 404.62 165.02 406.108 L 165.02 406.108 L 165.02 406.108 Q 167.57 407.595 169.398 409.55 L 169.398 409.55 L 169.398 409.55 Q 171.225 411.505 172.245 413.97 L 172.245 413.97 L 172.245 413.97 Q 173.265 416.435 173.265 419.325 L 173.265 419.325 L 173.265 419.325 Q 173.265 422.725 171.99 425.743 L 171.99 425.743 L 171.99 425.743 Q 170.715 428.76 168.123 431.055 L 168.123 431.055 L 168.123 431.055 Q 165.53 433.35 161.578 434.668 L 161.578 434.668 L 161.578 434.668 Q 157.625 435.985 152.27 435.985 L 152.27 435.985 L 152.27 435.985 Q 147.255 435.985 142.708 434.923 L 142.708 434.923 L 142.708 434.923 Q 138.16 433.86 134.335 431.905 L 134.335 431.905 L 137.225 422.47 L 137.225 422.47 Q 140.88 424.255 144.365 425.275 L 144.365 425.275 L 144.365 425.275 Q 147.85 426.295 151.675 426.295 L 151.675 426.295 L 151.675 426.295 Q 156.18 426.295 158.178 424.808 L 158.178 424.808 L 158.178 424.808 Q 160.175 423.32 160.175 420.77 L 160.175 420.77 L 160.175 420.77 Q 160.175 419.92 159.835 419.07 L 159.835 419.07 L 159.835 419.07 Q 159.495 418.22 158.518 417.37 L 158.518 417.37 L 158.518 417.37 Q 157.54 416.52 155.798 415.713 L 155.798 415.713 L 155.798 415.713 Q 154.055 414.905 151.335 414.055 L 151.335 414.055 L 147.17 412.61 L 147.17 412.61 Q 144.195 411.505 141.645 410.145 L 141.645 410.145 L 141.645 410.145 Q 139.095 408.785 137.268 406.915 L 137.268 406.915 L 137.268 406.915 Q 135.44 405.045 134.42 402.58 L 134.42 402.58 L 134.42 402.58 Q 133.4 400.115 133.4 396.715 L 133.4 396.715 L 133.4 396.715 Q 133.4 393.23 134.718 390.255 L 134.718 390.255 L 134.718 390.255 Q 136.035 387.28 138.628 385.113 L 138.628 385.113 L 138.628 385.113 Q 141.22 382.945 145.003 381.713 L 145.003 381.713 L 145.003 381.713 Q 148.785 380.48 153.715 380.48 Z  M 195.025 435.05 L 182.105 435.05 L 182.105 381.5 L 195.025 381.5 L 195.025 403.43 L 212.025 381.5 L 228.09 381.5 L 208.795 404.705 L 229.79 435.05 L 213.98 435.05 L 199.36 412.695 L 195.025 417.37 L 195.025 435.05 L 195.025 435.05 Z  M 230.3 381.5 L 244.835 381.5 L 255.63 401.22 L 266.51 381.5 L 280.705 381.5 L 261.75 413.035 L 261.75 435.05 L 248.83 435.05 L 248.83 413.035 L 230.3 381.5 L 230.3 381.5 Z  M 286.91 381.5 L 307.055 381.5 L 307.055 381.5 Q 315.64 381.5 320.74 385.24 L 320.74 385.24 L 320.74 385.24 Q 325.84 388.98 325.84 395.61 L 325.84 395.61 L 325.84 395.61 Q 325.84 398.075 324.948 400.03 L 324.948 400.03 L 324.948 400.03 Q 324.055 401.985 322.61 403.388 L 322.61 403.388 L 322.61 403.388 Q 321.165 404.79 319.423 405.725 L 319.423 405.725 L 319.423 405.725 Q 317.68 406.66 315.98 407 L 315.98 407 L 315.98 407 Q 318.275 407.425 320.358 408.403 L 320.358 408.403 L 320.358 408.403 Q 322.44 409.38 324.013 410.953 L 324.013 410.953 L 324.013 410.953 Q 325.585 412.525 326.52 414.735 L 326.52 414.735 L 326.52 414.735 Q 327.455 416.945 327.455 419.835 L 327.455 419.835 L 327.455 419.835 Q 327.455 423.15 326.01 425.955 L 326.01 425.955 L 326.01 425.955 Q 324.565 428.76 321.845 430.758 L 321.845 430.758 L 321.845 430.758 Q 319.125 432.755 315.258 433.903 L 315.258 433.903 L 315.258 433.903 Q 311.39 435.05 306.63 435.05 L 306.63 435.05 L 286.91 435.05 L 286.91 381.5 L 286.91 381.5 Z  M 299.83 391.19 L 299.83 402.58 L 305.015 402.58 L 305.015 402.58 Q 308.67 402.58 310.625 400.923 L 310.625 400.923 L 310.625 400.923 Q 312.58 399.265 312.58 396.545 L 312.58 396.545 L 312.58 396.545 Q 312.58 393.995 310.71 392.593 L 310.71 392.593 L 310.71 392.593 Q 308.84 391.19 305.1 391.19 L 305.1 391.19 L 299.83 391.19 L 299.83 391.19 Z  M 299.83 412.185 L 299.83 425.36 L 304.845 425.36 L 304.845 425.36 Q 309.01 425.36 311.603 423.83 L 311.603 423.83 L 311.603 423.83 Q 314.195 422.3 314.195 418.645 L 314.195 418.645 L 314.195 418.645 Q 314.195 415.245 311.645 413.715 L 311.645 413.715 L 311.645 413.715 Q 309.095 412.185 304.93 412.185 L 304.93 412.185 L 299.83 412.185 L 299.83 412.185 Z  M 336.295 435.05 L 336.295 381.5 L 349.215 381.5 L 349.215 425.02 L 370.38 425.02 L 370.38 435.05 L 336.295 435.05 L 336.295 435.05 Z  M 376.415 413.035 L 376.415 381.5 L 389.335 381.5 L 389.335 413.545 L 389.335 413.545 Q 389.335 419.58 391.8 422.895 L 391.8 422.895 L 391.8 422.895 Q 394.265 426.21 399.45 426.21 L 399.45 426.21 L 399.45 426.21 Q 404.55 426.21 406.803 422.938 L 406.803 422.938 L 406.803 422.938 Q 409.055 419.665 409.055 414.565 L 409.055 414.565 L 409.055 381.5 L 421.975 381.5 L 421.975 413.46 L 421.975 413.46 Q 421.975 435.985 399.45 435.985 L 399.45 435.985 L 399.45 435.985 Q 388.74 435.985 382.578 430.375 L 382.578 430.375 L 382.578 430.375 Q 376.415 424.765 376.415 413.035 L 376.415 413.035 L 376.415 413.035 Z  M 433.195 435.05 L 433.195 381.5 L 468.895 381.5 L 468.895 391.36 L 446.115 391.36 L 446.115 402.325 L 466.685 402.325 L 466.685 412.1 L 446.115 412.1 L 446.115 425.19 L 469.15 425.19 L 469.15 435.05 L 433.195 435.05 L 433.195 435.05 Z " fill-rule="evenodd" fill="rgb(255,255,255)"/></g></svg>