<?xml version="1.0" standalone="no"?><!-- Generator: Gravit.io --><svg xmlns="http://www.w3.org/2000/svg" xmlns:xlink="http://www.w3.org/1999/xlink" style="isolation:isolate" viewBox="0 0 315 313" width="315" height="313"><defs><clipPath id="_clipPath_fdKpPH74BTwUdZ2JI1MF1cWguzS9BP8y"><rect width="315" height="313"/></clipPath></defs><g clip-path="url(#_clipPath_fdKpPH74BTwUdZ2JI1MF1cWguzS9BP8y)"><clipPath id="_clipPath_loiikb2KschgIqol8qSF4tDNKgXwemHI"><rect x="0" y="0" width="595" height="459" transform="matrix(1,0,0,1,0,0)" fill="rgb(255,255,255)"/></clipPath><g clip-path="url(#_clipPath_loiikb2KschgIqol8qSF4tDNKgXwemHI)"><g><circle vector-effect="non-scaling-stroke" cx="157" cy="156.00000000000003" r="155" fill="rgb(82,103,175)"/><g><path d=" M 241.189 244.422 L 241.189 94.244 C 241.189 92.847 240.056 91.713 238.658 91.713 L 218.485 91.713 C 217.087 91.713 215.954 92.847 215.954 94.244 L 215.954 244.422 L 241.189 244.422 Z " fill="rgb(84,218,196)"/><path d=" M 193.651 244.422 L 193.651 131.398 C 193.651 130 192.517 128.867 191.12 128.867 L 170.946 128.867 C 169.549 128.867 168.415 129.998 168.415 131.398 L 168.415 244.424 L 193.651 244.424 L 193.651 244.422 Z " fill="rgb(151,180,252)"/><path d=" M 98.572 244.422 L 98.572 205.991 C 98.572 204.594 97.438 203.46 96.041 203.46 L 75.868 203.46 C 74.47 203.46 73.336 204.594 73.336 205.991 L 73.336 244.422 L 98.572 244.422 Z " fill="rgb(253,113,92)"/><path d=" M 146.11 244.422 L 146.11 168.743 C 146.11 167.346 144.979 166.212 143.579 166.212 L 123.408 166.212 C 122.01 166.212 120.877 167.344 120.877 168.743 L 120.877 244.422 L 146.11 244.422 Z " fill="rgb(245,181,86)"/><path d=" M 53.463 254.766 L 261.062 254.766 C 262.685 254.766 263.998 253.453 263.998 251.83 L 263.998 241.186 C 263.998 239.564 262.685 238.251 261.062 238.251 L 53.463 238.251 C 51.841 238.251 50.527 239.564 50.527 241.186 L 50.527 251.83 C 50.527 253.453 51.841 254.766 53.463 254.766 Z " fill="rgb(60,86,102)"/><path d=" M 261.064 238.249 L 240.893 238.249 L 240.893 254.766 L 261.064 254.766 C 262.685 254.766 264 253.453 264 251.83 L 264 241.186 C 264 239.564 262.685 238.249 261.064 238.249 Z " fill="rgb(25,68,81)"/><path d=" M 217.302 30.144 L 180.525 48.251 C 179.284 48.861 179.622 50.718 180.999 50.852 L 197.027 52.428 C 183.897 68.525 170.008 83.393 155.662 96.695 C 138.409 112.689 120.307 126.656 101.861 138.206 C 81.681 150.842 64.361 158.405 54.514 161.896 C 51.241 163.057 49.528 166.665 50.713 169.932 C 51.884 173.157 55.432 174.838 58.669 173.692 C 67.777 170.467 85.513 163.194 108.204 149.021 C 127.354 137.058 146.124 122.604 163.994 106.059 C 179.142 92.032 193.786 76.324 207.594 59.298 L 215.628 73.047 C 216.326 74.242 218.152 73.774 218.19 72.39 L 219.284 31.413 C 219.311 30.379 218.229 29.686 217.302 30.144 Z " fill="rgb(135,219,253)"/></g></g></g></g></svg>