<?xml version="1.0" standalone="no"?><!-- Generator: Gravit.io --><svg xmlns="http://www.w3.org/2000/svg" xmlns:xlink="http://www.w3.org/1999/xlink" style="isolation:isolate" viewBox="0 0 595 459" width="595" height="459"><defs><clipPath id="_clipPath_EQkVQ8p02n2lGp6HWYAJPS45FG6PkIbT"><rect width="595" height="459"/></clipPath></defs><g clip-path="url(#_clipPath_EQkVQ8p02n2lGp6HWYAJPS45FG6PkIbT)"><circle vector-effect="non-scaling-stroke" cx="284" cy="216" r="155" fill="rgb(82,103,175)"/><g><path d=" M 368.189 304.422 L 368.189 154.244 C 368.189 152.847 367.056 151.713 365.658 151.713 L 345.485 151.713 C 344.087 151.713 342.954 152.847 342.954 154.244 L 342.954 304.422 L 368.189 304.422 Z " fill="rgb(84,218,196)"/><path d=" M 320.651 304.422 L 320.651 191.398 C 320.651 190 319.517 188.867 318.12 188.867 L 297.946 188.867 C 296.549 188.867 295.415 189.998 295.415 191.398 L 295.415 304.424 L 320.651 304.424 L 320.651 304.422 Z " fill="rgb(151,180,252)"/><path d=" M 225.572 304.422 L 225.572 265.991 C 225.572 264.594 224.438 263.46 223.041 263.46 L 202.868 263.46 C 201.47 263.46 200.336 264.594 200.336 265.991 L 200.336 304.422 L 225.572 304.422 Z " fill="rgb(253,113,92)"/><path d=" M 273.11 304.422 L 273.11 228.743 C 273.11 227.346 271.979 226.212 270.579 226.212 L 250.408 226.212 C 249.01 226.212 247.877 227.344 247.877 228.743 L 247.877 304.422 L 273.11 304.422 Z " fill="rgb(245,181,86)"/><path d=" M 180.463 314.766 L 388.062 314.766 C 389.685 314.766 390.998 313.453 390.998 311.83 L 390.998 301.186 C 390.998 299.564 389.685 298.251 388.062 298.251 L 180.463 298.251 C 178.841 298.251 177.527 299.564 177.527 301.186 L 177.527 311.83 C 177.527 313.453 178.841 314.766 180.463 314.766 Z " fill="rgb(60,86,102)"/><path d=" M 388.064 298.249 L 367.893 298.249 L 367.893 314.766 L 388.064 314.766 C 389.685 314.766 391 313.453 391 311.83 L 391 301.186 C 391 299.564 389.685 298.249 388.064 298.249 Z " fill="rgb(25,68,81)"/><path d=" M 344.302 90.144 L 307.525 108.251 C 306.284 108.861 306.622 110.718 307.999 110.852 L 324.027 112.428 C 310.897 128.525 297.008 143.393 282.662 156.695 C 265.409 172.689 247.307 186.656 228.861 198.206 C 208.681 210.842 191.361 218.405 181.514 221.896 C 178.241 223.057 176.528 226.665 177.713 229.932 C 178.884 233.157 182.432 234.838 185.669 233.692 C 194.777 230.467 212.513 223.194 235.204 209.021 C 254.354 197.058 273.124 182.604 290.994 166.059 C 306.142 152.032 320.786 136.324 334.594 119.298 L 342.628 133.047 C 343.326 134.242 345.152 133.774 345.19 132.39 L 346.284 91.413 C 346.311 90.379 345.229 89.686 344.302 90.144 Z " fill="rgb(135,219,253)"/></g></g></svg>